<?xml version="1.0" encoding="UTF-8"?>
<svg version="1.1" xmlns="http://www.w3.org/2000/svg" width="640" height="640">
<path d="M0 0 C211.2 0 422.4 0 640 0 C640 211.2 640 422.4 640 640 C428.8 640 217.6 640 0 640 C0 428.8 0 217.6 0 0 Z " fill="#FEFEFE" transform="translate(0,0)"/>
<path d="M0 0 C10.89 0 21.78 0 33 0 C32.84144531 3.98835937 32.68289063 7.97671875 32.51953125 12.0859375 C32.0742749 24.52512737 31.90161811 36.9572346 31.839077 49.40387726 C31.82410533 52.374064 31.8064426 55.34422429 31.78811646 58.31439209 C31.71420157 70.573383 31.71420157 70.573383 31.67407227 82.83251953 C31.66387934 87.91182668 31.63432274 92.99072302 31.59275246 98.06986618 C31.58064962 99.96798957 31.57528207 101.8661712 31.57755089 103.76433182 C31.5989027 127.39372811 28.08824256 152.30986836 11.25 170.25 C-7.91288073 188.20143425 -32.67684589 189.485505 -57.4375 189.1875 C-59.63345431 189.17241812 -61.8294187 189.15873595 -64.02539062 189.14648438 C-69.35048416 189.1137748 -74.67519354 189.06385655 -80 189 C-81.27599739 185.22109741 -82.44056016 181.44292991 -83.49609375 177.59643555 C-87.95760492 161.57537969 -94.61364728 146.32724652 -101 131 C-132.35 131 -163.7 131 -196 131 C-203.76533859 150.41334648 -210.95915982 168.8366393 -216 189 C-227.55 189 -239.1 189 -251 189 C-251 182.24752964 -251 182.24752964 -249.3125 178.6015625 C-248.94253906 177.79074219 -248.57257813 176.97992188 -248.19140625 176.14453125 C-247.60166016 174.89736328 -247.60166016 174.89736328 -247 173.625 C-246.63777344 172.83222656 -246.27554688 172.03945313 -245.90234375 171.22265625 C-243.52250841 166.06769089 -241.00596059 160.98264787 -238.4609375 155.90771484 C-237.74411922 154.47619683 -237.0273234 153.04466758 -236.31054688 151.61312866 C-235.93357666 150.86061199 -235.55660645 150.10809532 -235.16821289 149.33277512 C-233.17002682 145.34264731 -231.17505723 141.35091172 -229.1796875 137.359375 C-228.31658394 135.63313055 -227.45346509 133.90689376 -226.59033203 132.18066406 C-226.1480426 131.29608521 -225.70575317 130.41150635 -225.25006104 129.50012207 C-197.40966797 73.81933594 -197.40966797 73.81933594 -196.09923172 71.19860649 C-195.2574013 69.51485148 -194.41571997 67.83102192 -193.57419968 66.14711189 C-191.61708815 62.23127862 -189.65764106 58.31665859 -187.69219971 54.40499878 C-187.32878479 53.68081253 -186.96536987 52.95662628 -186.59094238 52.210495 C-185.92069759 50.87513364 -185.24953921 49.5402302 -184.57720947 48.20591736 C-181.76420012 42.59764559 -179.21308578 36.89380618 -176.75 31.125 C-176.34265625 30.18398437 -175.9353125 29.24296875 -175.515625 28.2734375 C-172.06579029 20.26805182 -168.75747175 12.27241524 -166 4 C-152.47 4 -138.94 4 -125 4 C-123.02 9.94 -121.04 15.88 -119 22 C-116.59086744 27.42090454 -116.59086744 27.42090454 -114.046875 32.76171875 C-110.97901996 39.05020431 -108.13945686 45.44686952 -105.2590332 51.82275391 C-102.35322643 58.20077634 -99.28767686 64.48261357 -96.13800049 70.74234009 C-92.63961089 77.69791946 -89.22924874 84.69492516 -85.83520508 91.7019043 C-84.80396932 93.8301051 -83.77021982 95.9570728 -82.73632812 98.08398438 C-79.93446999 103.85779285 -77.1413321 109.62950519 -74.51171875 115.484375 C-72.4861802 119.98861628 -70.35387587 124.43347826 -68.1875 128.87109375 C-67.84808884 129.56660843 -67.50867767 130.26212311 -67.15898132 130.97871399 C-65.75457334 133.85362096 -64.34846022 136.72767659 -62.93847656 139.59985352 C-51 163.93789026 -51 163.93789026 -51 168 C-28.82534582 166.1895903 -28.82534582 166.1895903 -10.4375 154.75 C-9.24041854 153.20504872 -8.09145946 151.62129415 -7 150 C-6.51015625 149.27296875 -6.0203125 148.5459375 -5.515625 147.796875 C1.74394446 135.24209016 1.44444207 119.19064133 1.328125 105.11328125 C1.32504917 103.43824944 1.32318697 101.76321502 1.32244873 100.08818054 C1.31788683 96.59636429 1.30364193 93.10478389 1.28125 89.61303711 C1.25325408 85.2356024 1.24213647 80.85835217 1.23744965 76.48083687 C1.21662615 58.92501241 1.04924427 41.38832209 0.34307861 23.84529114 C0.02468658 15.87377516 0 7.99670062 0 0 Z " fill="#05904E" transform="translate(422,154)"/>
<path d="M0 0 C0.66 0 1.32 0 2 0 C2.25394531 0.88042969 2.50789063 1.76085937 2.76953125 2.66796875 C3.11371094 3.82941406 3.45789063 4.99085938 3.8125 6.1875 C4.14894531 7.33605469 4.48539062 8.48460937 4.83203125 9.66796875 C5.9314258 12.8043686 7.26333556 15.18721603 9 18 C9.71856751 19.63628086 10.43406349 21.27413925 11.12011719 22.92431641 C13.01416615 27.39246409 15.09436603 31.78021738 17.125 36.1875 C21.10721052 44.84488264 25.03800931 53.52289161 28.91625977 62.22729492 C31.42493472 67.82207014 34.10505319 73.2825924 37.00390625 78.6875 C38 81 38 81 38 85 C12.92 85 -12.16 85 -38 85 C-37.09766695 80.48833476 -35.7401364 77.05400941 -33.7109375 73.015625 C-33.01659503 71.60685543 -32.3222594 70.19808249 -31.62792969 68.78930664 C-31.26066772 68.0497171 -30.89340576 67.31012756 -30.51501465 66.54812622 C-24.0361412 53.4875318 -17.76636237 40.34234613 -11.75 27.0625 C-11.44261902 26.38602417 -11.13523804 25.70954834 -10.81854248 25.01257324 C-7.06171578 16.73637933 -3.43887677 8.41387667 0 0 Z " fill="#FAFDFC" transform="translate(273,178)"/>
<path d="M0 0 C4.95 0 9.9 0 15 0 C15 1.32 15 2.64 15 4 C15.66 4 16.32 4 17 4 C17 3.34 17 2.68 17 2 C21.66186542 -1.10791028 26.53956933 -0.61870492 32 0 C34.52232816 1.06838946 35.92943591 2.15949858 38 4 C38.6909375 3.3503125 39.381875 2.700625 40.09375 2.03125 C43.53831572 -0.37624217 45.34256341 -0.53885455 49.5 -0.5 C51.15515625 -0.51546875 51.15515625 -0.51546875 52.84375 -0.53125 C56.6647934 0.11189592 58.27960625 1.27960625 61 4 C63.52338021 7.69483241 63.25679815 11.52124988 63.1953125 15.828125 C63.1924826 16.57713074 63.18965271 17.32613647 63.18673706 18.09783936 C63.1755726 20.48205776 63.15047531 22.86589579 63.125 25.25 C63.11496535 26.86978623 63.10584035 28.48957836 63.09765625 30.109375 C63.07734987 34.07317989 63.0381954 38.03616589 63 42 C58.05 42 53.1 42 48 42 C47.67 32.1 47.34 22.2 47 12 C45.02 12 43.04 12 41 12 C39.60439955 14.79120091 39.78191712 17.20205692 39.68359375 20.3203125 C39.62075195 22.20556641 39.62075195 22.20556641 39.55664062 24.12890625 C39.51732422 25.44761719 39.47800781 26.76632812 39.4375 28.125 C39.39430488 29.46485751 39.35069027 30.80470156 39.30664062 32.14453125 C39.2002909 35.4295562 39.09961683 38.71476398 39 42 C34.05 42 29.1 42 24 42 C23.93941406 39.91816406 23.87882812 37.83632813 23.81640625 35.69140625 C23.75384593 33.68252498 23.69125225 31.67364459 23.62768555 29.66479492 C23.58428566 28.26510801 23.54261436 26.86536641 23.50268555 25.46557617 C23.44510555 23.45738505 23.38086 21.44938851 23.31640625 19.44140625 C23.27974854 18.23170166 23.24309082 17.02199707 23.20532227 15.77563477 C23.31061734 13.09294544 23.31061734 13.09294544 22 12 C20.33382885 11.95936168 18.66611905 11.957279 17 12 C15.57732138 14.84535725 15.78028131 17.36218552 15.68359375 20.5390625 C15.64169922 21.84101563 15.59980469 23.14296875 15.55664062 24.484375 C15.51682701 25.86458045 15.47711478 27.24478883 15.4375 28.625 C15.39430593 30.01303415 15.35069135 31.40105528 15.30664062 32.7890625 C15.20028066 36.19258129 15.09961082 39.596277 15 43 C10.05 43 5.1 43 0 43 C0 28.81 0 14.62 0 0 Z " fill="#109254" transform="translate(128,384)"/>
<path d="M0 0 C4.95 0 9.9 0 15 0 C15.33 5.94 15.66 11.88 16 18 C16.99 17.34 17.98 16.68 19 16 C24.78512256 15.33575362 30.19215982 15.20708764 35.5625 17.5625 C40.95019528 22.95019528 43.12062845 28.70332618 43.25 36.25 C43.14247087 44.33619023 40.87727016 49.50073021 35.59765625 55.5546875 C32.07863664 58.73815268 29.12462851 59.27550818 24.4375 59.25 C23.01244141 59.25773437 23.01244141 59.25773437 21.55859375 59.265625 C19 59 19 59 16 57 C15.505 57.495 15.505 57.495 15 58 C10.05 58 5.1 58 0 58 C0 38.86 0 19.72 0 0 Z " fill="#0E8F52" transform="translate(474,368)"/>
<path d="M0 0 C6.6 0 13.2 0 20 0 C23.37703595 7.87975056 23.37703595 7.87975056 24.62573242 11.66259766 C24.90579636 12.50682281 25.18586029 13.35104797 25.47441101 14.22085571 C25.76516006 15.10961395 26.05590912 15.99837219 26.35546875 16.9140625 C26.66196854 17.84672943 26.96846832 18.77939636 27.28425598 19.74032593 C27.92716151 21.70131556 28.56830132 23.66288488 29.20776367 25.625 C30.1874904 28.6249706 31.17849349 31.62106687 32.16992188 34.6171875 C32.79496572 36.52841872 33.41933796 38.43986974 34.04296875 40.3515625 C34.3397905 41.2443692 34.63661224 42.1371759 34.94242859 43.05703735 C35.21303604 43.89495819 35.48364349 44.73287903 35.76245117 45.59619141 C36.00211105 46.3278653 36.24177094 47.05953918 36.48869324 47.81338501 C37 50 37 50 37 55 C31.72 55 26.44 55 21 55 C20.01 50.05 20.01 50.05 19 45 C13.06 45.33 7.12 45.66 1 46 C0.34 48.97 -0.32 51.94 -1 55 C-6.28 55 -11.56 55 -17 55 C-15.82754611 48.92455711 -14.11586913 43.21502867 -12.10107422 37.36621094 C-9.88527517 30.84538512 -8.03435413 24.23053769 -6.23144531 17.58496094 C-4.55294552 11.52513437 -2.41717652 5.80642189 0 0 Z " fill="#099050" transform="translate(85,371)"/>
<path d="M0 0 C5.28 0 10.56 0 16 0 C16.33 5.94 16.66 11.88 17 18 C18.65 17.01 20.3 16.02 22 15 C26.49969203 14.20744061 31.0337599 14.68635994 35 17 C39.50595543 22.00661715 40.14382975 25.07185063 40.09765625 31.6328125 C40.0962413 32.38464813 40.09482635 33.13648376 40.09336853 33.91110229 C40.08776465 36.3157751 40.07521157 38.72035527 40.0625 41.125 C40.0574855 42.75390491 40.0529225 44.38281127 40.04882812 46.01171875 C40.03864424 50.00787702 40.01906972 54.00383465 40 58 C35.05 58 30.1 58 25 58 C24.93941406 55.91816406 24.87882812 53.83632813 24.81640625 51.69140625 C24.75384593 49.68252498 24.69125225 47.67364459 24.62768555 45.66479492 C24.58428566 44.26510801 24.54261436 42.86536641 24.50268555 41.46557617 C24.44510555 39.45738505 24.38086 37.44938851 24.31640625 35.44140625 C24.27974854 34.23170166 24.24309082 33.02199707 24.20532227 31.77563477 C24.31061734 29.09294544 24.31061734 29.09294544 23 28 C20.69 28 18.38 28 16 28 C15.67 37.9 15.34 47.8 15 58 C10.05 58 5.1 58 0 58 C0 38.86 0 19.72 0 0 Z " fill="#078F4E" transform="translate(200,368)"/>
<path d="M0 0 C5.00182135 3.38489154 7.9572817 7.50440276 9.19921875 13.48828125 C10.13002377 21.45043773 9.10961272 27.98406012 4.19921875 34.48828125 C1.69615718 36.57017759 -0.86606725 38.09542582 -3.80078125 39.48828125 C-4.79078125 39.98328125 -4.79078125 39.98328125 -5.80078125 40.48828125 C-13.7945666 41.18788083 -20.99210488 41.07951813 -27.80078125 36.48828125 C-32.8495886 32.18376982 -34.43073741 27.1137108 -35.08984375 20.65625 C-35.42977092 13.54461581 -34.56212957 8.87447843 -29.80078125 3.48828125 C-21.38292745 -5.33579606 -10.27161824 -5.72437123 0 0 Z " fill="#0A9050" transform="translate(457.80078125,386.51171875)"/>
<path d="M0 0 C3.07089623 2.36782262 4.27179131 4.50678018 5.484375 8.14453125 C5.5689137 10.58560885 5.60043286 12.99712338 5.58203125 15.4375 C5.5806163 16.14352859 5.57920135 16.84955719 5.57774353 17.57698059 C5.57215264 19.82870751 5.55960188 22.08033446 5.546875 24.33203125 C5.54185882 25.8600246 5.53729612 27.38801952 5.53320312 28.91601562 C5.5230377 32.65892353 5.50346069 36.40161568 5.484375 40.14453125 C0.864375 40.14453125 -3.755625 40.14453125 -8.515625 40.14453125 C-8.845625 39.48453125 -9.175625 38.82453125 -9.515625 38.14453125 C-10.21816406 38.62921875 -10.92070312 39.11390625 -11.64453125 39.61328125 C-16.43142679 42.1662922 -21.22811624 41.91726595 -26.515625 41.14453125 C-30.51457825 39.21769336 -32.82190343 36.19440771 -34.515625 32.14453125 C-35.36137924 27.24805931 -35.06060853 24.01009333 -32.390625 19.76953125 C-27.2078649 15.03744594 -23.1228017 13.75942248 -16.140625 13.95703125 C-14.89539063 13.98410156 -13.65015625 14.01117188 -12.3671875 14.0390625 C-11.42617188 14.07386719 -10.48515625 14.10867188 -9.515625 14.14453125 C-9.845625 12.16453125 -10.175625 10.18453125 -10.515625 8.14453125 C-13.43196629 7.89431555 -13.43196629 7.89431555 -16.515625 8.14453125 C-17.505625 9.62953125 -17.505625 9.62953125 -18.515625 11.14453125 C-21.7734375 11.4375 -21.7734375 11.4375 -25.640625 11.33203125 C-27.56261719 11.29142578 -27.56261719 11.29142578 -29.5234375 11.25 C-30.51085937 11.21519531 -31.49828125 11.18039062 -32.515625 11.14453125 C-31.82817964 6.25827743 -31.1219869 3.65598889 -27.515625 0.14453125 C-19.63459393 -4.82394486 -7.97417719 -4.82199176 0 0 Z " fill="#0B9051" transform="translate(360.515625,385.85546875)"/>
<path d="M0 0 C2.79969889 1.97052275 4.482482 3.9126969 6 7 C6.74702437 12.66477752 6.56650073 18.23884778 6.375 23.9375 C6.34486921 25.4953913 6.31749887 27.05333858 6.29296875 28.61132812 C6.23231828 32.41006928 6.11492844 36.20097649 6 40 C1.38 40 -3.24 40 -8 40 C-8 39.01 -8 38.02 -8 37 C-8.7425 37.66 -9.485 38.32 -10.25 39 C-15.02588615 42.15367304 -20.52433838 41.99557484 -26 41 C-29.54044891 39.02505571 -32.1800709 36.6398582 -34 33 C-34.41849303 28.4529123 -34.53618367 24.32634907 -32.8125 20.0625 C-29.77313231 16.60390918 -26.48194414 14.84375114 -22 14 C-19.75092848 13.93209325 -17.49998395 13.91500016 -15.25 13.9375 C-13.49429687 13.95103516 -13.49429687 13.95103516 -11.703125 13.96484375 C-10.81109375 13.97644531 -9.9190625 13.98804688 -9 14 C-9.33 12.02 -9.66 10.04 -10 8 C-12.31 8 -14.62 8 -17 8 C-17.33 8.99 -17.66 9.98 -18 11 C-22.62 11 -27.24 11 -32 11 C-32 6.03416843 -31.78089355 4.85626509 -28.52734375 1.359375 C-21.1224123 -5.23120338 -8.14486165 -5.15287166 0 0 Z " fill="#07904F" transform="translate(281,386)"/>
<path d="M0 0 C3.6170955 2.04949392 5.95343094 3.78431254 7.4375 7.8125 C7.4375 8.8025 7.4375 9.7925 7.4375 10.8125 C2.8175 10.8125 -1.8025 10.8125 -6.5625 10.8125 C-6.8925 10.1525 -7.2225 9.4925 -7.5625 8.8125 C-9.88406597 8.40520772 -12.2193787 8.06811323 -14.5625 7.8125 C-14.67114767 9.77173926 -14.67114767 9.77173926 -13.5625 11.8125 C-10.9397763 12.84242803 -8.52398099 13.62030855 -5.8125 14.3125 C-0.52762453 15.6907499 3.38437353 16.91407302 7.4375 20.8125 C9.3055999 24.54869981 8.98122628 28.74392747 8.4375 32.8125 C6.39165503 37.24363506 2.82392617 39.39913546 -1.6027832 41.20385742 C-4.91095742 42.2312996 -8.19792309 42.28586855 -11.625 42.25 C-12.6469043 42.2799707 -12.6469043 42.2799707 -13.68945312 42.31054688 C-18.79156492 42.30564571 -21.62617893 40.97084611 -25.5625 37.8125 C-28.70710066 34.49792093 -29.81282799 32.25857461 -30.5625 27.8125 C-28.27140403 27.73174335 -25.97950733 27.67342269 -23.6875 27.625 C-21.77324219 27.57279297 -21.77324219 27.57279297 -19.8203125 27.51953125 C-18.74523437 27.61621094 -17.67015625 27.71289062 -16.5625 27.8125 C-15.9025 28.8025 -15.2425 29.7925 -14.5625 30.8125 C-12.59888136 31.38998803 -12.59888136 31.38998803 -10.4375 31.5 C-9.15875 31.603125 -7.88 31.70625 -6.5625 31.8125 C-6.49508528 29.85710719 -6.49508528 29.85710719 -7.5625 27.8125 C-10.01912659 26.78191519 -12.26218367 26.00891406 -14.8125 25.3125 C-19.80954048 23.91640969 -23.72283024 22.45008188 -27.5625 18.8125 C-29.54414102 14.84921796 -29.11136004 10.12229874 -28.5625 5.8125 C-26.4375 2.8125 -26.4375 2.8125 -23.5625 0.8125 C-22.716875 0.214375 -21.87125 -0.38375 -21 -1 C-13.84252723 -3.4725815 -6.87744785 -3.19202191 0 0 Z " fill="#0C9051" transform="translate(551.5625,385.1875)"/>
<path d="M0 0 C5.28 0 10.56 0 16 0 C16.12409718 6.26213445 16.21457497 12.52354468 16.2746582 18.78662109 C16.29971889 20.91467771 16.33377691 23.04264897 16.37719727 25.17041016 C16.43822089 28.23882163 16.46629474 31.30608995 16.48828125 34.375 C16.51408768 35.31802979 16.5398941 36.26105957 16.56648254 37.23266602 C16.56920806 43.73028979 15.16848121 47.96568959 11 53 C6.92479363 56.53369683 2.85277861 56.36752312 -2.3125 56.1875 C-3.42334961 56.16719727 -3.42334961 56.16719727 -4.55664062 56.14648438 C-6.37141075 56.11135979 -8.18580288 56.05755972 -10 56 C-10 52.04 -10 48.08 -10 44 C-5.545 43.505 -5.545 43.505 -1 43 C-0.67 28.81 -0.34 14.62 0 0 Z " fill="#0C9151" transform="translate(400,371)"/>
<path d="M0 0 C5.28 0 10.56 0 16 0 C16.33 1.32 16.66 2.64 17 4 C17.515625 3.34 18.03125 2.68 18.5625 2 C21.79995755 -0.65637543 23.92552281 -0.31342132 28 0 C28 4.29 28 8.58 28 13 C25.02148438 13.63476562 25.02148438 13.63476562 22.04296875 14.26953125 C19.57555803 15.15176032 18.61253021 15.93219353 17 18 C16.49520343 20.6068023 16.49520343 20.6068023 16.48828125 23.54296875 C16.45283203 24.61611328 16.41738281 25.68925781 16.38085938 26.79492188 C16.35830078 27.91447266 16.33574219 29.03402344 16.3125 30.1875 C16.27833984 31.31865234 16.24417969 32.44980469 16.20898438 33.61523438 C16.1264443 36.40980557 16.06154765 39.20488768 16 42 C10.72 42 5.44 42 0 42 C0 28.14 0 14.28 0 0 Z " fill="#119255" transform="translate(295,384)"/>
<path d="M0 0 C3.96 0 7.92 0 12 0 C12 5.94 12 11.88 12 18 C14.31 18 16.62 18 19 18 C19 18.66 19 19.32 19 20 C18.34 20 17.68 20 17 20 C17 20.99 17 21.98 17 23 C16.33871094 23.59039062 15.67742187 24.18078125 14.99609375 24.7890625 C12.70625254 26.88122087 12.70625254 26.88122087 12.72265625 30.0234375 C13.33841071 38.52295115 13.33841071 38.52295115 17 46 C19.58414426 46.96906827 19.58414426 46.96906827 22 47 C22.33 48.98 22.66 50.96 23 53 C21.35 53.66 19.7 54.32 18 55 C17.67 54.34 17.34 53.68 17 53 C16.34 53.66 15.68 54.32 15 55 C15 54.34 15 53.68 15 53 C14.34 53 13.68 53 13 53 C13 53.66 13 54.32 13 55 C8.71 55 4.42 55 0 55 C0 36.85 0 18.7 0 0 Z " fill="#02904C" transform="translate(475,370)"/>
<path d="M0 0 C7.64505249 -0.15517698 7.64505249 -0.15517698 10.375 1.78125 C14.34341032 6.56909608 14.71383737 10.17413249 14.671875 16.13671875 C14.67046005 16.88855438 14.6690451 17.64039001 14.66758728 18.41500854 C14.6619834 20.81968135 14.64943032 23.22426152 14.63671875 25.62890625 C14.63170425 27.25781116 14.62714125 28.88671752 14.62304688 30.515625 C14.61201272 34.51175452 14.59474554 38.50781467 14.57421875 42.50390625 C9.95421875 42.50390625 5.33421875 42.50390625 0.57421875 42.50390625 C0.55127901 38.41043711 0.5313609 34.31713149 0.51928711 30.22363281 C0.51425445 28.83072148 0.50742777 27.43781545 0.4987793 26.04492188 C0.48666723 24.04429379 0.48151463 22.04362737 0.4765625 20.04296875 C0.47132568 18.83850098 0.46608887 17.6340332 0.46069336 16.39306641 C0.57421875 13.50390625 0.57421875 13.50390625 1.57421875 11.50390625 C0.25421875 11.17390625 -1.06578125 10.84390625 -2.42578125 10.50390625 C-2.42578125 9.84390625 -2.42578125 9.18390625 -2.42578125 8.50390625 C-3.41578125 8.17390625 -4.40578125 7.84390625 -5.42578125 7.50390625 C-4.04719117 0.84072087 -4.04719117 0.84072087 0 0 Z " fill="#068F4D" transform="translate(225.42578125,383.49609375)"/>
<path d="M0 0 C4.29 0 8.58 0 13 0 C13 1.32 13 2.64 13 4 C14.65 4.33 16.3 4.66 18 5 C17.45276317 8.37462715 16.9451 10.08235 15 13 C14.63072954 16.0042707 14.63072954 16.0042707 14.5859375 19.41796875 C14.52792969 21.29838867 14.52792969 21.29838867 14.46875 23.21679688 C14.42234375 25.18229492 14.42234375 25.18229492 14.375 27.1875 C14.33680662 28.5228116 14.29775409 29.85809892 14.2578125 31.19335938 C14.16341115 34.46200611 14.08061168 37.73098412 14 41 C9.38 41 4.76 41 0 41 C0 27.47 0 13.94 0 0 Z " fill="#048E4C" transform="translate(129,385)"/>
<path d="M0 0 C0.33 0 0.66 0 1 0 C1 1.98 1 3.96 1 6 C-0.11375 6.309375 -1.2275 6.61875 -2.375 6.9375 C-5.7945155 7.82326483 -5.7945155 7.82326483 -8 9 C-8 9.66 -8 10.32 -8 11 C-5.36 11.33 -2.72 11.66 0 12 C0.125 19.625 0.125 19.625 -1 23 C-2.98 23 -4.96 23 -7 23 C-6.67 24.65 -6.34 26.3 -6 28 C-2.04 27.505 -2.04 27.505 2 27 C1.67 28.32 1.34 29.64 1 31 C0.67 30.34 0.34 29.68 0 29 C-0.70253906 29.4846875 -1.40507812 29.969375 -2.12890625 30.46875 C-6.91580179 33.02176095 -11.71249124 32.7727347 -17 32 C-20.99895325 30.07316211 -23.30627843 27.04987646 -25 23 C-25.84575424 18.10352806 -25.54498353 14.86556208 -22.875 10.625 C-17.6922399 5.89291469 -13.6071767 4.61489123 -6.625 4.8125 C-5.37976563 4.83957031 -4.13453125 4.86664063 -2.8515625 4.89453125 C-1.91054688 4.92933594 -0.96953125 4.96414063 0 5 C0 3.35 0 1.7 0 0 Z " fill="#129154" transform="translate(351,395)"/>
<path d="M0 0 C0.33 0 0.66 0 1 0 C1 1.65 1 3.3 1 5 C-0.98 5.99 -2.96 6.98 -5 8 C-4.34 8.33 -3.68 8.66 -3 9 C-3 9.66 -3 10.32 -3 11 C-2.34 11.33 -1.68 11.66 -1 12 C-1.75 18.75 -1.75 18.75 -4 21 C-7.125 21.125 -7.125 21.125 -10 21 C-9.67 21.99 -9.34 22.98 -9 24 C-10.4375 26.6875 -10.4375 26.6875 -12 29 C-10.02 29.33 -8.04 29.66 -6 30 C-6 30.33 -6 30.66 -6 31 C-16.3220339 31.91525424 -16.3220339 31.91525424 -20.3203125 29.734375 C-23.36433118 27.11066015 -25.82017412 24.95387739 -26.203125 20.79296875 C-26.36440549 11.82846142 -26.36440549 11.82846142 -23 8 C-17.6241975 4.14044949 -13.27463865 3.87708668 -6.75 3.9375 C-4.85507812 3.95103516 -4.85507812 3.95103516 -2.921875 3.96484375 C-1.95765625 3.97644531 -0.9934375 3.98804688 0 4 C0 2.68 0 1.36 0 0 Z " fill="#0A9050" transform="translate(273,396)"/>
<path d="M0 0 C2.5 0.625 2.5 0.625 4.8125 2.4375 C7.29673327 7.12994062 7.16220924 11.41866531 6.5 16.625 C5 20.3125 5 20.3125 3.5 22.625 C1.19 22.625 -1.12 22.625 -3.5 22.625 C-7.03455335 17.17589692 -7.36178449 11.92560216 -6.5 5.625 C-4.66370844 2.15644928 -3.80068828 0.95017207 0 0 Z " fill="#F3FBF8" transform="translate(494.5,393.375)"/>
<path d="M0 0 C3 0.5 3 0.5 4.66015625 2.09765625 C6.45698475 5.31937499 6.43357918 7.76369533 6.4375 11.4375 C6.45683594 12.64277344 6.47617187 13.84804688 6.49609375 15.08984375 C5.91807377 19.06316221 4.83997314 20.71204102 2 23.5 C-0.5625 24.0625 -0.5625 24.0625 -3 23.5 C-5.58139651 21.01764988 -5.99184835 19.57224596 -6.3984375 15.96875 C-6.39070313 14.6590625 -6.38296875 13.349375 -6.375 12 C-6.38273437 10.6903125 -6.39046875 9.380625 -6.3984375 8.03125 C-5.85397165 3.20578792 -4.9507374 0.8251229 0 0 Z " fill="#F6FCFA" transform="translate(445,393.5)"/>
<path d="M0 0 C3.63 0 7.26 0 11 0 C11 0.66 11 1.32 11 2 C11.66 2.33 12.32 2.66 13 3 C9.8791423 7.74370371 7.37467329 8.58027498 2 10 C1.67 10.99 1.34 11.98 1 13 C-3.29 13 -7.58 13 -12 13 C-12 9 -12 9 -10.46875 7.296875 C-9.8190625 6.78640625 -9.169375 6.2759375 -8.5 5.75 C-7.8503125 5.22921875 -7.200625 4.7084375 -6.53125 4.171875 C-5.77328125 3.59179688 -5.77328125 3.59179688 -5 3 C-4.67 3.66 -4.34 4.32 -4 5 C-3.34 5 -2.68 5 -2 5 C-1.34 3.35 -0.68 1.7 0 0 Z " fill="#048F4B" transform="translate(262,384)"/>
<path d="M0 0 C1.32708733 0.00539291 1.32708733 0.00539291 2.6809845 0.01089478 C4.07108734 0.01067574 4.07108734 0.01067574 5.48927307 0.01045227 C8.56809285 0.01115178 11.64685295 0.01894595 14.72566223 0.02676392 C16.85415616 0.02862796 18.98265051 0.03005193 21.11114502 0.03105164 C26.72537919 0.03487789 32.33958766 0.04470909 37.95381165 0.05575562 C43.67788851 0.06596743 49.40196951 0.07054876 55.12605286 0.07559204 C66.36629855 0.08633126 77.60652513 0.10340896 88.84675598 0.12442017 C89.83675598 2.59942017 89.83675598 2.59942017 90.84675598 5.12442017 C90.18675598 5.12442017 89.52675598 5.12442017 88.84675598 5.12442017 C88.84675598 4.13442017 88.84675598 3.14442017 88.84675598 2.12442017 C42.31675598 1.62942017 42.31675598 1.62942017 -5.15324402 1.12442017 C-5.48324402 3.43442017 -5.81324402 5.74442017 -6.15324402 8.12442017 C-6.81324402 8.78442017 -7.47324402 9.44442017 -8.15324402 10.12442017 C-8.83109394 12.45452926 -9.49741195 14.78801841 -10.15324402 17.12442017 C-10.81324402 18.11442017 -11.47324402 19.10442017 -12.15324402 20.12442017 C-12.94464508 22.68093564 -13.6083213 25.2553209 -14.27433777 27.84707642 C-15.15324402 30.12442017 -15.15324402 30.12442017 -18.15324402 32.12442017 C-16.78211411 24.87166742 -14.44951077 18.41681385 -11.59074402 11.62442017 C-11.17888855 10.62410767 -10.76703308 9.62379517 -10.34269714 8.59317017 C-6.78066294 0.01164095 -6.78066294 0.01164095 0 0 Z " fill="#E8FDF3" transform="translate(232.1532440185547,283.8755798339844)"/>
<path d="M0 0 C1.98 0 3.96 0 6 0 C5.67 3.63 5.34 7.26 5 11 C5.99 10.67 6.98 10.34 8 10 C8 11.32 8 12.64 8 14 C12.62 14 17.24 14 22 14 C22.66 12.68 23.32 11.36 24 10 C25.99954746 9.95745644 28.00041636 9.95919217 30 10 C31 11 31 11 31.0625 14.0625 C31.041875 15.031875 31.02125 16.00125 31 17 C30.03578125 17.06058594 29.0715625 17.12117188 28.078125 17.18359375 C26.81484375 17.26738281 25.5515625 17.35117187 24.25 17.4375 C22.99703125 17.51871094 21.7440625 17.59992188 20.453125 17.68359375 C17.81682447 17.92515522 15.51962706 18.24283934 13 19 C13 18.01 13 17.02 13 16 C11.02 16 9.04 16 7 16 C6.67 15.01 6.34 14.02 6 13 C5.01 14.485 5.01 14.485 4 16 C1.6171875 16.51171875 1.6171875 16.51171875 -1.125 16.6875 C-2.49011719 16.78611328 -2.49011719 16.78611328 -3.8828125 16.88671875 C-4.58148438 16.92410156 -5.28015625 16.96148437 -6 17 C-4.875 15.5 -4.875 15.5 -3 14 C-1.02 14 0.96 14 3 14 C3 9.71 3 5.42 3 1 C2.01 0.67 1.02 0.34 0 0 Z " fill="#D2F6E6" transform="translate(320,383)"/>
<path d="M0 0 C0.66 0 1.32 0 2 0 C2.50961846 1.39235043 3.00724909 2.78909118 3.5 4.1875 C3.91765625 5.35345703 3.91765625 5.35345703 4.34375 6.54296875 C5.03687348 9.13805606 5.04671827 11.32732563 5 14 C11.5839119 13.90748305 18.16746397 13.80014551 24.75097656 13.68261719 C26.98952791 13.64439012 29.22813937 13.60952639 31.46679688 13.578125 C34.68902026 13.53233852 37.91083207 13.47436586 41.1328125 13.4140625 C42.12991241 13.40251129 43.12701233 13.39096008 44.15432739 13.37905884 C49.18531095 13.27277311 53.26050456 12.86405389 58 11 C60.9921875 10.8046875 60.9921875 10.8046875 63.875 10.875 C64.84179688 10.89304687 65.80859375 10.91109375 66.8046875 10.9296875 C67.89136719 10.96449219 67.89136719 10.96449219 69 11 C57.48145689 18.67902874 39.70005346 16.34561604 26.5625 16.1875 C24.36654569 16.17241812 22.1705813 16.15873595 19.97460938 16.14648438 C14.64951584 16.1137748 9.32480646 16.06385655 4 16 C2.71453869 12.2168096 1.61804535 8.55252541 0.875 4.625 C0.70742188 3.75101562 0.53984375 2.87703125 0.3671875 1.9765625 C0.24601562 1.32429688 0.12484375 0.67203125 0 0 Z " fill="#2D9263" transform="translate(338,327)"/>
<path d="M0 0 C2.95689226 1.14278505 5.96548846 2.08575614 9 3 C9 3.99 9 4.98 9 6 C8.01 6.33 7.02 6.66 6 7 C6 7.66 6 8.32 6 9 C2.37 9 -1.26 9 -5 9 C-5.33 8.34 -5.66 7.68 -6 7 C-8.30965848 5.94647157 -10.6429774 4.94280904 -13 4 C-8.66773163 -1.65601704 -8.66773163 -1.65601704 -5.9375 -3.0625 C-3.21278715 -2.97460604 -2.18043918 -1.65006208 0 0 Z " fill="#05904D" transform="translate(539,417)"/>
<path d="M0 0 C2.71558473 2.71558473 3.2008154 5.76041135 4.125 9.375 C4.30675781 10.04789062 4.48851563 10.72078125 4.67578125 11.4140625 C5.55136531 14.75839862 6 17.5156851 6 21 C2.37 21 -1.26 21 -5 21 C-4.35752308 17.87427507 -3.71118 14.74943792 -3.0625 11.625 C-2.88009766 10.73554688 -2.69769531 9.84609375 -2.50976562 8.9296875 C-2.33251953 8.07890625 -2.15527344 7.228125 -1.97265625 6.3515625 C-1.81031494 5.56604004 -1.64797363 4.78051758 -1.48071289 3.97119141 C-1 2 -1 2 0 0 Z " fill="#F0FCF7" transform="translate(94,383)"/>
<path d="M0 0 C5.94 0.33 11.88 0.66 18 1 C18 14.53 18 28.06 18 42 C17.67 42 17.34 42 17 42 C17 28.8 17 15.6 17 2 C11.72 2 6.44 2 1 2 C1.02356567 3.8394519 1.02356567 3.8394519 1.04760742 5.71606445 C1.10186611 10.26140792 1.13633529 14.8067227 1.16479492 19.35229492 C1.17989082 21.32044283 1.20036948 23.28855706 1.22631836 25.2565918 C1.26266649 28.08390612 1.27971814 30.9107761 1.29296875 33.73828125 C1.30845261 34.61962234 1.32393646 35.50096344 1.33988953 36.40901184 C1.34022942 37.6399482 1.34022942 37.6399482 1.34057617 38.89575195 C1.34723801 39.61745071 1.35389984 40.33914948 1.36076355 41.0827179 C0.88506171 43.61084086 0.05792316 44.48868598 -2 46 C-5.6875 46.1875 -5.6875 46.1875 -9 46 C-8.67 45.01 -8.34 44.02 -8 43 C-7.030625 42.855625 -6.06125 42.71125 -5.0625 42.5625 C-2.13513227 42.32437659 -2.13513227 42.32437659 -1 41 C-0.8396444 37.97192956 -0.74039552 34.96414546 -0.68359375 31.93359375 C-0.66281265 31.02497086 -0.64203156 30.11634796 -0.62062073 29.18019104 C-0.55502328 26.26604054 -0.4961932 23.35179696 -0.4375 20.4375 C-0.39432446 18.46678709 -0.35071049 16.49608374 -0.30664062 14.52539062 C-0.19850314 9.68368791 -0.09950598 4.84191872 0 0 Z " fill="#D3F5E7" transform="translate(399,369)"/>
<path d="M0 0 C5.28 0 10.56 0 16 0 C16.33 5.94 16.66 11.88 17 18 C18.65 17.01 20.3 16.02 22 15 C24.74852193 14.64024582 27.2104588 14.85815892 30 15 C30 15.33 30 15.66 30 16 C27.69 16 25.38 16 23 16 C21.5393715 18.64738916 21 19.89448334 21 23 C21.66 23.33 22.32 23.66 23 24 C23 24.66 23 25.32 23 26 C24.32 26.33 25.64 26.66 27 27 C26.67 37.23 26.34 47.46 26 58 C25.67 58 25.34 58 25 58 C24.97494385 57.12674072 24.9498877 56.25348145 24.92407227 55.35375977 C24.82912291 52.12397448 24.72987971 48.89435846 24.62768555 45.66479492 C24.58428566 44.26510801 24.54261436 42.86536641 24.50268555 41.46557617 C24.44510555 39.45738505 24.38086 37.44938851 24.31640625 35.44140625 C24.27974854 34.23170166 24.24309082 33.02199707 24.20532227 31.77563477 C24.31061734 29.09294544 24.31061734 29.09294544 23 28 C21.00041636 27.95919217 18.99954746 27.95745644 17 28 C17.33 25.69 17.66 23.38 18 21 C17.01 20.67 16.02 20.34 15 20 C15 13.73 15 7.46 15 1 C10.05 1 5.1 1 0 1 C0 0.67 0 0.34 0 0 Z " fill="#4DA67C" transform="translate(200,368)"/>
<path d="M0 0 C3.67504149 2.82911396 5.75741229 5.4428541 6.4831543 10.10131836 C6.59008546 13.73062791 6.52338042 17.30978905 6.375 20.9375 C6.33439453 22.82178711 6.33439453 22.82178711 6.29296875 24.74414062 C6.22254137 27.83120748 6.12408646 30.91470152 6 34 C5.67 34 5.34 34 5 34 C4.970271 32.89543457 4.970271 32.89543457 4.93994141 31.76855469 C4.84462172 28.42867944 4.73497004 25.08942361 4.625 21.75 C4.5940625 20.59113281 4.563125 19.43226563 4.53125 18.23828125 C4.47324219 16.56572266 4.47324219 16.56572266 4.4140625 14.859375 C4.3826416 13.83295898 4.3512207 12.80654297 4.31884766 11.74902344 C3.92036865 8.31343875 2.82745629 6.1323086 0.8125 3.375 C-1.86712499 1.34218104 -4.76942869 0.79240428 -8 0 C-8 -0.66 -8 -1.32 -8 -2 C-9.79260132 -1.94004678 -11.58425795 -1.8512759 -13.375 -1.75 C-14.37273437 -1.70359375 -15.37046875 -1.6571875 -16.3984375 -1.609375 C-19.1526477 -1.27839115 -19.1526477 -1.27839115 -20.3515625 1.046875 C-20.56554687 1.69140625 -20.77953125 2.3359375 -21 3 C-23 3 -25 3 -27 3 C-27.66 4.32 -28.32 5.64 -29 7 C-29.66 7 -30.32 7 -31 7 C-31.33 8.32 -31.66 9.64 -32 11 C-32.54233189 7.31214318 -32.03130501 6.04743184 -29.9375 2.875 C-22.56523837 -5.04864962 -8.95244404 -5.66379113 0 0 Z " fill="#369168" transform="translate(281,386)"/>
<path d="M0 0 C2.33294775 -0.04241723 4.66702567 -0.04092937 7 0 C8 1 8 1 8.0625 4.0625 C8.041875 5.031875 8.02125 6.00125 8 7 C7.154375 7.03738281 6.30875 7.07476562 5.4375 7.11328125 C-1.31064379 7.50436686 -6.82797163 8.21653623 -13 11 C-13 10.01 -13 9.02 -13 8 C-12.01 8 -11.02 8 -10 8 C-10 7.34 -10 6.68 -10 6 C-11.98 6 -13.96 6 -16 6 C-15.67 4.68 -15.34 3.36 -15 2 C-15 2.66 -15 3.32 -15 4 C-10.38 4 -5.76 4 -1 4 C-0.67 2.68 -0.34 1.36 0 0 Z " fill="#D3F5E7" transform="translate(264,393)"/>
<path d="M0 0 C4.62 0 9.24 0 14 0 C14 0.66 14 1.32 14 2 C12.68 2 11.36 2 10 2 C9.67 2.99 9.34 3.98 9 5 C7.4375 6.6875 7.4375 6.6875 6 8 C9.465 9.485 9.465 9.485 13 11 C13 11.66 13 12.32 13 13 C17.62 13 22.24 13 27 13 C27 13.33 27 13.66 27 14 C24.45716766 14.10871967 21.91904912 14.18762401 19.375 14.25 C18.66214844 14.28351563 17.94929687 14.31703125 17.21484375 14.3515625 C11.98654489 14.44749459 9.17437689 13.40295702 5 10 C1.60042896 6.41666836 1.00944002 5.04720008 0 0 Z " fill="#22905C" transform="translate(521,413)"/>
<path d="M0 0 C0.66 0 1.32 0 2 0 C2.33 2.31 2.66 4.62 3 7 C1.02 7 -0.96 7 -3 7 C-3 8.65 -3 10.3 -3 12 C-6.65943647 11.31092878 -10.22441959 10.43178734 -13.8125 9.4375 C-14.78832031 9.16808594 -15.76414062 8.89867187 -16.76953125 8.62109375 C-17.50558594 8.41613281 -18.24164062 8.21117187 -19 8 C-19.33 6.35 -19.66 4.7 -20 3 C-17.69 3 -15.38 3 -13 3 C-12.67 3.99 -12.34 4.98 -12 6 C-7.38 6 -2.76 6 2 6 C1.34 4.02 0.68 2.04 0 0 Z " fill="#C0ECD8" transform="translate(557,390)"/>
<path d="M0 0 C3.14002815 3.54959704 3.13398634 4.80391802 4 10 C-21.08 10 -46.16 10 -72 10 C-71.67 8.35 -71.34 6.7 -71 5 C-70.67 6.32 -70.34 7.64 -70 9 C-45.91 9 -21.82 9 3 9 C3 8.34 3 7.68 3 7 C2.34 7 1.68 7 1 7 C0.505 3.535 0.505 3.535 0 0 Z " fill="#C4F9E2" transform="translate(307,253)"/>
<path d="M0 0 C3.0625 -0.25 3.0625 -0.25 6 0 C7 1 7 1 7.11352539 3.86743164 C7.10828857 5.11903076 7.10305176 6.37062988 7.09765625 7.66015625 C7.0962413 8.32462265 7.09482635 8.98908905 7.09336853 9.6736908 C7.08775518 11.80333899 7.07520054 13.93288339 7.0625 16.0625 C7.05748671 17.50325369 7.05292351 18.94400903 7.04882812 20.38476562 C7.03863076 23.92324958 7.0190583 27.46150813 7 31 C11.95 31 16.9 31 22 31 C22 31.33 22 31.66 22 32 C16.72 32 11.44 32 6 32 C5.67 22.76 5.34 13.52 5 4 C3.68 4 2.36 4 1 4 C-0.77490546 5.77490546 -0.23499973 8.37784902 -0.31640625 10.78515625 C-0.35830078 11.95498047 -0.40019531 13.12480469 -0.44335938 14.33007812 C-0.48267578 15.56177734 -0.52199219 16.79347656 -0.5625 18.0625 C-0.60568359 19.29806641 -0.64886719 20.53363281 -0.69335938 21.80664062 C-0.79984198 24.87097335 -0.90185424 27.93539073 -1 31 C-1.33 31 -1.66 31 -2 31 C-2.04947698 27.06734104 -2.08575578 23.13480286 -2.10986328 19.2019043 C-2.12485495 17.20680382 -2.15026731 15.21179054 -2.17578125 13.21679688 C-2.18222656 11.96318359 -2.18867188 10.70957031 -2.1953125 9.41796875 C-2.20578613 8.26063232 -2.21625977 7.1032959 -2.22705078 5.91088867 C-2 3 -2 3 0 0 Z " fill="#C0EAD7" transform="translate(169,395)"/>
<path d="M0 0 C0.886875 0.5775 1.77375 1.155 2.6875 1.75 C8.0602014 4.85817436 14.06348221 6.32170625 20 8 C20.33 9.65 20.66 11.3 21 13 C19.72125 13.061875 18.4425 13.12375 17.125 13.1875 C16.40570312 13.22230469 15.68640625 13.25710938 14.9453125 13.29296875 C14.30335938 13.19628906 13.66140625 13.09960938 13 13 C12.34 12.01 11.68 11.02 11 10 C7.65386488 9.41312216 7.65386488 9.41312216 3.875 9.3125 C2.59367188 9.24675781 1.31234375 9.18101562 -0.0078125 9.11328125 C-0.99523437 9.07589844 -1.98265625 9.03851563 -3 9 C-0.1004339 7.34123921 1.91635209 6.7638784 5.25 6.875 C7.10625 6.936875 7.10625 6.936875 9 7 C8.43410156 6.82984375 7.86820313 6.6596875 7.28515625 6.484375 C6.55167969 6.24203125 5.81820312 5.9996875 5.0625 5.75 C3.96615234 5.40195312 3.96615234 5.40195312 2.84765625 5.046875 C1 4 1 4 0.24609375 1.890625 C0.16488281 1.26671875 0.08367188 0.6428125 0 0 Z " fill="#E0FBF2" transform="translate(524,404)"/>
<path d="M0 0 C2.31 0 4.62 0 7 0 C7 0.66 7 1.32 7 2 C5.35 2 3.7 2 2 2 C2.34227572 4.97065509 2.34227572 4.97065509 3 8 C7.7581135 10.37905675 14.99632677 9.33431286 20 8 C20 7.01 20 6.02 20 5 C21.32 4.67 22.64 4.34 24 4 C21.90319834 8.08324534 20.17804365 10.06821638 16 12 C13.14327264 12.20984775 10.52798778 12.28649823 7.6875 12.1875 C6.94693359 12.17396484 6.20636719 12.16042969 5.44335938 12.14648438 C3.62858925 12.11135979 1.81419712 12.05755972 0 12 C0 8.04 0 4.08 0 0 Z " fill="#268E5E" transform="translate(390,415)"/>
<path d="M0 0 C2.01822917 0.06510417 4.03645833 0.13020833 6.0546875 0.1953125 C6.2421875 3.5703125 6.2421875 3.5703125 6.0546875 7.1953125 C2.83095073 9.34447035 1.78765076 9.57818053 -1.9453125 9.1953125 C-3.9453125 7.1953125 -3.9453125 7.1953125 -4.1953125 4.6953125 C-3.88754876 1.61767512 -3.20963914 0.32225293 0 0 Z " fill="#E2F9EF" transform="translate(344.9453125,407.8046875)"/>
<path d="M0 0 C2.01822917 0.06510417 4.03645833 0.13020833 6.0546875 0.1953125 C5.3046875 6.9453125 5.3046875 6.9453125 3.0546875 9.1953125 C0.5546875 9.4453125 0.5546875 9.4453125 -1.9453125 9.1953125 C-3.9453125 7.1953125 -3.9453125 7.1953125 -4.1953125 4.6953125 C-3.88754876 1.61767512 -3.20963914 0.32225293 0 0 Z " fill="#E6FBF2" transform="translate(265.9453125,407.8046875)"/>
<path d="M0 0 C2.5 -0.3125 2.5 -0.3125 5 0 C7 2 7 2 7.22705078 4.88916016 C7.21134033 6.69586182 7.21134033 6.69586182 7.1953125 8.5390625 C7.18886719 9.84101563 7.18242187 11.14296875 7.17578125 12.484375 C7.15906929 13.86458595 7.14213939 15.24479429 7.125 16.625 C7.11497006 18.01301452 7.10584423 19.40103589 7.09765625 20.7890625 C7.07401863 24.19288026 7.04106867 27.59635506 7 31 C4.95826465 27.62301212 4.76474961 25.05453777 4.8046875 21.140625 C4.81435547 19.46806641 4.81435547 19.46806641 4.82421875 17.76171875 C4.84097656 16.60285156 4.85773438 15.44398438 4.875 14.25 C4.88402344 13.07566406 4.89304688 11.90132813 4.90234375 10.69140625 C4.92589937 7.79406464 4.95879348 4.89713559 5 2 C3.02463255 2.34786708 3.02463255 2.34786708 1 3 C-0.34106405 5.6821281 -0.21450419 7.88398032 -0.31640625 10.8828125 C-0.35830078 12.04941406 -0.40019531 13.21601563 -0.44335938 14.41796875 C-0.48267578 15.64128906 -0.52199219 16.86460937 -0.5625 18.125 C-0.60568359 19.35605469 -0.64886719 20.58710938 -0.69335938 21.85546875 C-0.79968704 24.90352853 -0.90171781 27.9516719 -1 31 C-1.33 31 -1.66 31 -2 31 C-2.04947698 27.06734104 -2.08575578 23.13480286 -2.10986328 19.2019043 C-2.12485495 17.20680382 -2.15026731 15.21179054 -2.17578125 13.21679688 C-2.18222656 11.96318359 -2.18867188 10.70957031 -2.1953125 9.41796875 C-2.20578613 8.26063232 -2.21625977 7.1032959 -2.22705078 5.91088867 C-2 3 -2 3 0 0 Z " fill="#BAE5D1" transform="translate(145,395)"/>
<path d="M0 0 C0.83265381 0.00523682 1.66530762 0.01047363 2.52319336 0.01586914 C3.42231445 0.0190918 4.32143555 0.02231445 5.24780273 0.02563477 C6.66609375 0.03820312 6.66609375 0.03820312 8.11303711 0.05102539 C9.06243164 0.05553711 10.01182617 0.06004883 10.98999023 0.06469727 C13.34356776 0.07652429 15.69702188 0.09300514 18.05053711 0.11352539 C18.05053711 0.77352539 18.05053711 1.43352539 18.05053711 2.11352539 C8.64553711 2.60852539 8.64553711 2.60852539 -0.94946289 3.11352539 C-3.55870283 9.67677951 -3.55870283 9.67677951 -4.63696289 16.11352539 C-4.70270508 16.87665039 -4.76844727 17.63977539 -4.83618164 18.42602539 C-4.87356445 18.98290039 -4.91094727 19.53977539 -4.94946289 20.11352539 C-5.93946289 20.11352539 -6.92946289 20.11352539 -7.94946289 20.11352539 C-7.48215118 14.97309661 -6.07589992 0.3538251 0 0 Z " fill="#2E9265" transform="translate(86.949462890625,370.886474609375)"/>
<path d="M0 0 C2.2255844 1.76044903 2.94223506 2.63925229 3.3984375 5.48828125 C3.35202665 11.08078843 3.1422283 15.15573138 0 20 C-2.31 20 -4.62 20 -7 20 C-10.61601216 14.42531458 -10.30720059 9.39432346 -10 3 C-9.67 3 -9.34 3 -9 3 C-8.67 7.29 -8.34 11.58 -8 16 C-7.34 16 -6.68 16 -6 16 C-6 16.99 -6 17.98 -6 19 C-4.35 18.67 -2.7 18.34 -1 18 C0.2062252 14.38132441 0.10816918 11.07493749 0.0625 7.3125 C0.05798828 6.61060547 0.05347656 5.90871094 0.04882812 5.18554688 C0.03706927 3.45699462 0.01913454 1.72848635 0 0 Z " fill="#C9F0DF" transform="translate(498,396)"/>
<path d="M0 0 C0.33 0 0.66 0 1 0 C1.95039583 5.92358783 2.4111468 11.82471604 2.75 17.8125 C2.85248047 19.24239258 2.85248047 19.24239258 2.95703125 20.70117188 C3.03244141 22.06532227 3.03244141 22.06532227 3.109375 23.45703125 C3.16061523 24.28178955 3.21185547 25.10654785 3.26464844 25.95629883 C3.13364746 26.96793091 3.13364746 26.96793091 3 28 C-0.76508495 30.51005664 -3.39461609 30.0258295 -7.6875 29.625 C-8.38939453 29.56828125 -9.09128906 29.5115625 -9.81445312 29.453125 C-11.54380285 29.31195359 -13.27204088 29.15728041 -15 29 C-15 28.67 -15 28.34 -15 28 C-10.05 28 -5.1 28 0 28 C0 18.76 0 9.52 0 0 Z " fill="#BAE3D1" transform="translate(215,398)"/>
<path d="M0 0 C1.29815376 4.66594244 0.21956198 7.60646287 -1.4375 12.0625 C-1.68371094 12.73410156 -1.92992187 13.40570313 -2.18359375 14.09765625 C-3 16 -3 16 -5 19 C-5.79140106 21.55651547 -6.45507728 24.13090073 -7.12109375 26.72265625 C-8 29 -8 29 -11 31 C-9.62869665 23.71400915 -7.26161559 17.252619 -4.375 10.4375 C-3.95476562 9.42880859 -3.53453125 8.42011719 -3.1015625 7.38085938 C-2.07428499 4.91772808 -1.04034585 2.45763324 0 0 Z " fill="#D3F3E5" transform="translate(225,285)"/>
<path d="M0 0 C1.98 0 3.96 0 6 0 C5.67 3.63 5.34 7.26 5 11 C5.99 10.67 6.98 10.34 8 10 C8 11.98 8 13.96 8 16 C7.34 15.01 6.68 14.02 6 13 C5.01 14.485 5.01 14.485 4 16 C1.6171875 16.51171875 1.6171875 16.51171875 -1.125 16.6875 C-2.49011719 16.78611328 -2.49011719 16.78611328 -3.8828125 16.88671875 C-4.58148438 16.92410156 -5.28015625 16.96148437 -6 17 C-4.875 15.5 -4.875 15.5 -3 14 C-1.02 14 0.96 14 3 14 C3 9.71 3 5.42 3 1 C2.01 0.67 1.02 0.34 0 0 Z " fill="#C1E6D6" transform="translate(320,383)"/>
<path d="M0 0 C1.65 0 3.3 0 5 0 C6.07525194 2.65228812 7.09456151 5.28368454 8 8 C5.69 8 3.38 8 1 8 C1 7.01 1 6.02 1 5 C0.01 5 -0.98 5 -2 5 C-1.34 3.35 -0.68 1.7 0 0 Z " fill="#058F4D" transform="translate(549,387)"/>
<path d="M0 0 C0 0.33 0 0.66 0 1 C-1.26457031 1.03867187 -1.26457031 1.03867187 -2.5546875 1.078125 C-3.65039062 1.13484375 -4.74609375 1.1915625 -5.875 1.25 C-6.96554687 1.29640625 -8.05609375 1.3428125 -9.1796875 1.390625 C-12.1332065 1.68846128 -12.1332065 1.68846128 -13.3828125 4.046875 C-13.58648437 4.69140625 -13.79015625 5.3359375 -14 6 C-16 6 -18 6 -20 6 C-20.66 7.32 -21.32 8.64 -22 10 C-22.66 10 -23.32 10 -24 10 C-24.33 11.32 -24.66 12.64 -25 14 C-25.54233189 10.31214318 -25.03130501 9.04743184 -22.9375 5.875 C-16.44670743 -1.10125351 -8.93947071 -0.36295595 0 0 Z " fill="#3C9D70" transform="translate(274,383)"/>
<path d="M0 0 C1.465058 5.14503895 0.00351192 9.12967427 -2 14 C-4.0625 16.375 -4.0625 16.375 -6 18 C-7.23512079 20.13309192 -7.23512079 20.13309192 -8 22 C-8.66 22 -9.32 22 -10 22 C-8.4719611 16.90117545 -6.28963144 12.34334341 -3.875 7.625 C-3.50246094 6.88894531 -3.12992188 6.15289062 -2.74609375 5.39453125 C-1.8343878 3.59449642 -0.91770068 1.79698598 0 0 Z " fill="#228F5D" transform="translate(221,235)"/>
<path d="M0 0 C0.66 0.33 1.32 0.66 2 1 C0.7934375 2.175625 0.7934375 2.175625 -0.4375 3.375 C-3.89513149 7.43820536 -3.88796107 11.84620904 -4 17 C-3.34 17 -2.68 17 -2 17 C-1.34 18.98 -0.68 20.96 0 23 C-4.875 19.25 -4.875 19.25 -6 17 C-6.42526125 12.37937295 -6.56310381 8.28709443 -4.6875 4 C-3 2 -3 2 0 0 Z " fill="#268C5D" transform="translate(253,402)"/>
<path d="M0 0 C0.74886475 0.00523682 1.49772949 0.01047363 2.26928711 0.01586914 C3.07817383 0.0190918 3.88706055 0.02231445 4.72045898 0.02563477 C5.5705957 0.03401367 6.42073242 0.04239258 7.29663086 0.05102539 C8.15063477 0.05553711 9.00463867 0.06004883 9.88452148 0.06469727 C12.00108749 0.07652166 14.11761771 0.0944577 16.23413086 0.11352539 C16.56413086 2.42352539 16.89413086 4.73352539 17.23413086 7.11352539 C16.24413086 6.78352539 15.25413086 6.45352539 14.23413086 6.11352539 C14.56413086 4.46352539 14.89413086 2.81352539 15.23413086 1.11352539 C10.28413086 1.11352539 5.33413086 1.11352539 0.23413086 1.11352539 C-0.09586914 2.76352539 -0.42586914 4.41352539 -0.76586914 6.11352539 C-1.75586914 6.77352539 -2.74586914 7.43352539 -3.76586914 8.11352539 C-2.75578702 0.1771659 -2.75578702 0.1771659 0 0 Z " fill="#D5F3E6" transform="translate(87.765869140625,415.886474609375)"/>
<path d="M0 0 C-6.50810765 4.59395834 -13.19596324 7.29770303 -21 9 C-21.66 8.67 -22.32 8.34 -23 8 C-18.20517932 5.24297811 -14.41390868 4.46671627 -9 4 C-9 3.01 -9 2.02 -9 1 C-5.47051709 -0.66670026 -3.71727674 -1.13583456 0 0 Z " fill="#D7F5E8" transform="translate(409,312)"/>
<path d="M0 0 C0.66 0.33 1.32 0.66 2 1 C0.35347424 8.05653895 -1.68512741 13.06705019 -6 19 C-6.66 19 -7.32 19 -8 19 C-6.71144097 14.70480323 -4.99493155 10.87167664 -2.953125 6.90234375 C-1.82581771 4.65234929 -0.88335259 2.3556069 0 0 Z " fill="#269160" transform="translate(253,168)"/>
<path d="M0 0 C2.45453691 3.68180536 3.72299097 7.41018617 5.1875 11.5625 C5.47302734 12.34302734 5.75855469 13.12355469 6.05273438 13.92773438 C6.76316564 15.93111596 7.38825059 17.9643151 8 20 C7.67 20.66 7.34 21.32 7 22 C4.7522025 19.94766315 3.9977758 18.99332739 3 16 C2.96045766 13.66700175 2.95598268 11.33291811 3 9 C2.34 9 1.68 9 1 9 C0.67 6.03 0.34 3.06 0 0 Z " fill="#C0E8D7" transform="translate(332,312)"/>
<path d="M0 0 C0.33 0 0.66 0 1 0 C1.02685938 2.14576637 1.04633088 4.29162645 1.0625 6.4375 C1.07410156 7.63246094 1.08570313 8.82742188 1.09765625 10.05859375 C1 13 1 13 0 14 C-0.1546875 15.6396875 -0.1546875 15.6396875 -0.3125 17.3125 C-1 21 -1 21 -5 25 C-3.35 16.75 -1.7 8.5 0 0 Z " fill="#D1F5E4" transform="translate(452,276)"/>
<path d="M0 0 C2.63674321 3.95511481 3.77075145 8.05223931 5.1875 12.5625 C5.47302734 13.43841797 5.75855469 14.31433594 6.05273438 15.21679688 C6.31763672 16.05404297 6.58253906 16.89128906 6.85546875 17.75390625 C7.09934326 18.52033447 7.34321777 19.2867627 7.59448242 20.07641602 C8 22 8 22 7 24 C6.34 23.67 5.68 23.34 5 23 C4.4375 20.78515625 4.4375 20.78515625 4 18.0625 C3.4451989 14.07684725 3.4451989 14.07684725 1 11 C0.5859375 8.3984375 0.5859375 8.3984375 0.375 5.375 C0.30023438 4.37210937 0.22546875 3.36921875 0.1484375 2.3359375 C0.09945312 1.56507813 0.05046875 0.79421875 0 0 Z " fill="#3C9B6F" transform="translate(112,393)"/>
<path d="M0 0 C2.31 0 4.62 0 7 0 C7.66 1.65 8.32 3.3 9 5 C6.36 5 3.72 5 1 5 C0.67 3.35 0.34 1.7 0 0 Z " fill="#CCF4E5" transform="translate(537,393)"/>
<path d="M0 0 C1.4835001 0.42257276 2.96176424 0.86356322 4.4375 1.3125 C5.67306641 1.67794922 5.67306641 1.67794922 6.93359375 2.05078125 C7.61550781 2.36402344 8.29742188 2.67726563 9 3 C9.33 3.99 9.66 4.98 10 6 C14.62 6 19.24 6 24 6 C24 6.33 24 6.66 24 7 C21.45716766 7.10871967 18.91904912 7.18762401 16.375 7.25 C15.66214844 7.28351563 14.94929687 7.31703125 14.21484375 7.3515625 C9.00274916 7.44719726 6.12966286 6.44758641 2 3 C1.34 2.01 0.68 1.02 0 0 Z " fill="#309164" transform="translate(524,420)"/>
<path d="M0 0 C2.8125 -0.25 2.8125 -0.25 6 0 C8.57431967 2.40668955 8.98390559 3.8501316 9.36328125 7.3828125 C9.34652344 8.61773437 9.32976562 9.85265625 9.3125 11.125 C9.30863281 12.36507813 9.30476563 13.60515625 9.30078125 14.8828125 C9 18 9 18 7 20 C7.01160156 19.09636719 7.02320313 18.19273437 7.03515625 17.26171875 C7.04417969 16.08222656 7.05320312 14.90273438 7.0625 13.6875 C7.07410156 12.51574219 7.08570313 11.34398437 7.09765625 10.13671875 C7.14899898 6.96940805 7.14899898 6.96940805 6 4 C5.34 4 4.68 4 4 4 C4 3.34 4 2.68 4 2 C2.68 1.34 1.36 0.68 0 0 Z " fill="#CCF2E1" transform="translate(442,394)"/>
<path d="M0 0 C0.99 0.495 0.99 0.495 2 1 C2 1.66 2 2.32 2 3 C3.45880109 2.85892253 4.91703551 2.71197585 6.375 2.5625 C7.18710937 2.48128906 7.99921875 2.40007812 8.8359375 2.31640625 C11.04272805 2.10909886 11.04272805 2.10909886 13 1 C13.99 1.66 14.98 2.32 16 3 C12.61877827 5.25414782 11.3935272 5.24544447 7.4375 5.1875 C6.46683594 5.18105469 5.49617188 5.17460937 4.49609375 5.16796875 C2 5 2 5 0 4 C0 2.68 0 1.36 0 0 Z " fill="#218C5A" transform="translate(491,422)"/>
<path d="M0 0 C2.97 0.495 2.97 0.495 6 1 C1.57763179 5.27495594 -3.19839226 6.51298598 -9 8 C-8 5 -8 5 -5.6875 3.3125 C-3 2 -3 2 1 2 C0.67 1.34 0.34 0.68 0 0 Z " fill="#198D56" transform="translate(417,330)"/>
<path d="M0 0 C0.66 0 1.32 0 2 0 C2.99 3.63 3.98 7.26 5 11 C4.01 10.67 3.02 10.34 2 10 C1.67 9.01 1.34 8.02 1 7 C-0.32 7.99 -1.64 8.98 -3 10 C-2.01 6.7 -1.02 3.4 0 0 Z " fill="#C1EBD8" transform="translate(273,178)"/>
<path d="M0 0 C0 0.66 0 1.32 0 2 C-3.74542732 4.84541706 -6.53955949 5.38755991 -11.1875 5.3125 C-12.23292969 5.30863281 -13.27835938 5.30476563 -14.35546875 5.30078125 C-17 5 -17 5 -19 3 C-18.19175781 2.95101563 -17.38351562 2.90203125 -16.55078125 2.8515625 C-15.48214844 2.77679688 -14.41351562 2.70203125 -13.3125 2.625 C-11.72888672 2.52058594 -11.72888672 2.52058594 -10.11328125 2.4140625 C-6.58159728 1.94435296 -3.48594319 0 0 0 Z " fill="#CBF0E0" transform="translate(555,424)"/>
<path d="M0 0 C0.66 0.33 1.32 0.66 2 1 C2 1.66 2 2.32 2 3 C1.01 3.33 0.02 3.66 -1 4 C-1.99 5.485 -1.99 5.485 -3 7 C-7.11192754 8.77560507 -10.54533388 9.21212696 -15 9 C-11.56448701 6.70965801 -7.99166802 5.00773438 -4.27734375 3.21875 C-1.88877494 2.08197469 -1.88877494 2.08197469 0 0 Z " fill="#28925F" transform="translate(410,310)"/>
<path d="M0 0 C1 2 1 2 0.1875 4.875 C-1 8 -1 8 -2.0625 9.875 C-3.51017037 13.15638617 -3.64404339 16.44043389 -4 20 C-4.33 20 -4.66 20 -5 20 C-5.61046468 11.86047097 -5.2922002 6.4262431 0 0 Z " fill="#329165" transform="translate(428,390)"/>
<path d="M0 0 C1.22327644 4.04025812 0.3589875 5.99853681 -1 10 C-1.45032709 12.99075923 -1.74554861 15.98675988 -2 19 C-2.99 19 -3.98 19 -5 19 C-4.39297368 12.3227105 -2.22368606 6.29872004 0 0 Z " fill="#39976A" transform="translate(84,372)"/>
<path d="M0 0 C0.98484375 0.00902344 1.9696875 0.01804687 2.984375 0.02734375 C4.10585938 0.04474609 4.10585938 0.04474609 5.25 0.0625 C2.32675293 2.01133138 0.73916982 2.54329727 -2.625 3.1875 C-3.46804688 3.35507812 -4.31109375 3.52265625 -5.1796875 3.6953125 C-7.74151915 4.06128845 -10.16609989 4.12732904 -12.75 4.0625 C-9.0694254 -0.17016079 -5.40062232 -0.06429312 0 0 Z " fill="#228D5C" transform="translate(401.75,337.9375)"/>
<path d="M0 0 C0.99 0 1.98 0 3 0 C3 5.28 3 10.56 3 16 C2.34 16 1.68 16 1 16 C0.67 10.72 0.34 5.44 0 0 Z " fill="#1B8B58" transform="translate(450,396)"/>
<path d="M0 0 C2.1991413 4.39828259 2.51855059 7.18550592 3 12 C-0.63 12 -4.26 12 -8 12 C-8 11.67 -8 11.34 -8 11 C-5.69 11 -3.38 11 -1 11 C-0.67 7.37 -0.34 3.74 0 0 Z " fill="#B7E5D0" transform="translate(97,392)"/>
<path d="M0 0 C0.66 0 1.32 0 2 0 C1.21450457 5.81266619 -0.40682459 11.36877624 -2 17 C-2.99 16.67 -3.98 16.34 -5 16 C-3.90301833 10.30860098 -2.45946923 5.25432063 0 0 Z " fill="#218C5A" transform="translate(208,325)"/>
<path d="M0 0 C1.12551154 3.81869988 0.69342436 5.35913762 -1 9 C-1.54482042 10.26948448 -2.08639491 11.54036608 -2.625 12.8125 C-3.07875 13.864375 -3.5325 14.91625 -4 16 C-4.99 16 -5.98 16 -7 16 C-5.35433477 10.31497465 -2.70967216 5.23318364 0 0 Z " fill="#319566" transform="translate(187,303)"/>
<path d="M0 0 C2.64 0.33 5.28 0.66 8 1 C8 2.32 8 3.64 8 5 C5.36 5 2.72 5 0 5 C0 3.35 0 1.7 0 0 Z " fill="#E8FAF3" transform="translate(537,412)"/>
<path d="M0 0 C0.33 0 0.66 0 1 0 C0.53411505 5.70709064 -0.93757784 9.15939723 -4 14 C-4.66 14 -5.32 14 -6 14 C-4.50829734 9.0276578 -2.39542583 4.58154261 0 0 Z " fill="#1F8F5B" transform="translate(206,265)"/>
<path d="M0 0 C0.66 0 1.32 0 2 0 C2.84334329 2.22582389 3.67478551 4.45496026 4.5 6.6875 C4.73847656 7.31333984 4.97695313 7.93917969 5.22265625 8.58398438 C6.5412725 12.18192299 7.29329235 15.16520253 7 19 C5.06216159 15.40503809 3.7375774 11.6571994 2.375 7.8125 C2.14554687 7.17119141 1.91609375 6.52988281 1.6796875 5.86914062 C0 1.13502139 0 1.13502139 0 0 Z " fill="#D7F6E9" transform="translate(296,157)"/>
<path d="M0 0 C0.33 1.32 0.66 2.64 1 4 C0.34 4 -0.32 4 -1 4 C-1 11.26 -1 18.52 -1 26 C-1.33 26 -1.66 26 -2 26 C-2.05785647 22.04172765 -2.09354717 18.0835633 -2.125 14.125 C-2.14175781 12.99707031 -2.15851563 11.86914062 -2.17578125 10.70703125 C-2.18222656 9.63066406 -2.18867188 8.55429687 -2.1953125 7.4453125 C-2.20578613 6.45031738 -2.21625977 5.45532227 -2.22705078 4.43017578 C-2 2 -2 2 0 0 Z " fill="#CAF6E2" transform="translate(313,400)"/>
<path d="M0 0 C4.29 0.66 8.58 1.32 13 2 C13 2.66 13 3.32 13 4 C8.71 4 4.42 4 0 4 C0 2.68 0 1.36 0 0 Z " fill="#178754" transform="translate(250,393)"/>
<path d="M0 0 C0.66 0.33 1.32 0.66 2 1 C2 5 2 5 1 8 C0.34 8 -0.32 8 -1 8 C-1 7.34 -1 6.68 -1 6 C-2.65 5.67 -4.3 5.34 -6 5 C-5.67 3.68 -5.34 2.36 -5 1 C-5 1.99 -5 2.98 -5 4 C-4.34 4 -3.68 4 -3 4 C-3 3.34 -3 2.68 -3 2 C-2.01 1.34 -1.02 0.68 0 0 Z " fill="#1D9159" transform="translate(148,384)"/>
<path d="M0 0 C4.95 0 9.9 0 15 0 C15 0.66 15 1.32 15 2 C10.05183286 4.80396138 5.38317715 3.77350507 0 3 C0 2.01 0 1.02 0 0 Z " fill="#D9F5E7" transform="translate(333,426)"/>
<path d="M0 0 C2.76223278 2.76223278 2.57856291 5.20706617 3 9 C2.01 9 1.02 9 0 9 C-0.66 9.66 -1.32 10.32 -2 11 C-1.85892253 9.54119891 -1.71197585 8.08296449 -1.5625 6.625 C-1.48128906 5.81289063 -1.40007812 5.00078125 -1.31640625 4.1640625 C-1 2 -1 2 0 0 Z " fill="#C0EEDB" transform="translate(94,383)"/>
<path d="M0 0 C0.6875 1.8125 0.6875 1.8125 1 4 C0 5.75 0 5.75 -2 7 C-5.6875 7.1875 -5.6875 7.1875 -9 7 C-8.67 6.01 -8.34 5.02 -8 4 C-7.05125 3.896875 -6.1025 3.79375 -5.125 3.6875 C-1.70892499 3.31460705 -1.70892499 3.31460705 0 0 Z " fill="#DDF8EC" transform="translate(399,408)"/>
<path d="M0 0 C4.875 2.75 4.875 2.75 6 5 C6.12082534 6.66345582 6.1753794 8.33220591 6.1875 10 C6.20167969 10.886875 6.21585938 11.77375 6.23046875 12.6875 C6 15 6 15 4 17 C4.33 13.37 4.66 9.74 5 6 C4.34 6 3.68 6 3 6 C2.896875 5.360625 2.79375 4.72125 2.6875 4.0625 C2.460625 3.381875 2.23375 2.70125 2 2 C1.01 1.67 0.02 1.34 -1 1 C-0.67 0.67 -0.34 0.34 0 0 Z " fill="#298D5F" transform="translate(554,403)"/>
<path d="M0 0 C1.79068573 2.6860286 2.66055791 4.6626589 3.625 7.6875 C3.88539063 8.49574219 4.14578125 9.30398437 4.4140625 10.13671875 C4.60742188 10.75160156 4.80078125 11.36648437 5 12 C4.34 12.66 3.68 13.32 3 14 C0.81005752 10.71508627 0.64722661 9.16904361 0.375 5.3125 C0.30023438 4.31863281 0.22546875 3.32476562 0.1484375 2.30078125 C0.09945313 1.54152344 0.05046875 0.78226563 0 0 Z " fill="#299563" transform="translate(299,167)"/>
<path d="M0 0 C0.33 0 0.66 0 1 0 C0.50769231 6.4 0.50769231 6.4 -2.0625 9.4375 C-3.0215625 10.2109375 -3.0215625 10.2109375 -4 11 C-4.99 10.67 -5.98 10.34 -7 10 C-6.57847656 9.52949219 -6.15695312 9.05898438 -5.72265625 8.57421875 C-5.17480469 7.95160156 -4.62695312 7.32898438 -4.0625 6.6875 C-3.51722656 6.07261719 -2.97195313 5.45773437 -2.41015625 4.82421875 C-0.79918441 2.94758042 -0.79918441 2.94758042 0 0 Z " fill="#D7F5E7" transform="translate(515,414)"/>
<path d="M0 0 C0.33 0 0.66 0 1 0 C1.13277344 0.89203125 1.26554687 1.7840625 1.40234375 2.703125 C1.57894531 3.87359375 1.75554687 5.0440625 1.9375 6.25 C2.11152344 7.41015625 2.28554688 8.5703125 2.46484375 9.765625 C2.8727736 12.23106961 3.33901303 14.59424562 4 17 C3.01 17 2.02 17 1 17 C-0.18681726 13.43954823 -0.09689832 10.56191663 -0.0625 6.8125 C-0.05347656 5.54019531 -0.04445313 4.26789063 -0.03515625 2.95703125 C-0.02355469 1.98121094 -0.01195312 1.00539063 0 0 Z " fill="#D3F6E7" transform="translate(422,401)"/>
<path d="M0 0 C1.32 0 2.64 0 4 0 C4 1.65 4 3.3 4 5 C1.69 5 -0.62 5 -3 5 C-1.75 2.5 -1.75 2.5 0 0 Z " fill="#F5FDFA" transform="translate(346,394)"/>
<path d="M0 0 C2 1 2 1 2.62109375 2.703125 C3.06955765 5.42164845 3.09529082 7.99557077 3.0625 10.75 C3.05347656 11.73484375 3.04445313 12.7196875 3.03515625 13.734375 C3.02355469 14.48203125 3.01195312 15.2296875 3 16 C2.67 16 2.34 16 2 16 C1.33333333 12.66666667 0.66666667 9.33333333 0 6 C-0.20753906 5.08605469 -0.41507813 4.17210937 -0.62890625 3.23046875 C-0.75136719 2.49441406 -0.87382813 1.75835937 -1 1 C-0.67 0.67 -0.34 0.34 0 0 Z " fill="#4FA67C" transform="translate(514,394)"/>
<path d="M0 0 C0.33 0.66 0.66 1.32 1 2 C1.66 1.67 2.32 1.34 3 1 C4.87379605 0.92966231 6.75001102 0.9156978 8.625 0.9375 C10.12933594 0.95103516 10.12933594 0.95103516 11.6640625 0.96484375 C12.43492187 0.97644531 13.20578125 0.98804688 14 1 C14 1.33 14 1.66 14 2 C12.98679688 2.18175781 12.98679688 2.18175781 11.953125 2.3671875 C10.61507812 2.61855469 10.61507812 2.61855469 9.25 2.875 C7.92742187 3.11863281 7.92742187 3.11863281 6.578125 3.3671875 C4.13052256 3.96796264 2.19400143 4.77997117 0 6 C0 4.02 0 2.04 0 0 Z " fill="#E6FCF5" transform="translate(216,381)"/>
<path d="M0 0 C2 3 2 3 2 5 C4.31 5 6.62 5 9 5 C5.73454239 6.88391785 2.71888239 7.49287967 -1 8 C-1.125 2.25 -1.125 2.25 0 0 Z " fill="#1E9059" transform="translate(369,317)"/>
<path d="M0 0 C0.66 0 1.32 0 2 0 C2.72750788 1.40691607 3.43140353 2.82606022 4.125 4.25 C4.51945312 5.03890625 4.91390625 5.8278125 5.3203125 6.640625 C6 9 6 9 5.1171875 11.296875 C4.74851562 11.85890625 4.37984375 12.4209375 4 13 C3 12 3 12 2.9375 8.4375 C2.958125 7.303125 2.97875 6.16875 3 5 C2.01 4.67 1.02 4.34 0 4 C0 2.68 0 1.36 0 0 Z " fill="#269360" transform="translate(318,212)"/>
<path d="M0 0 C0.99 0.61875 1.98 1.2375 3 1.875 C6.89746801 4.12261959 10.6118123 5.07617101 15 6 C15 6.33 15 6.66 15 7 C4.60293138 6.13924051 4.60293138 6.13924051 1 4 C0.1875 1.875 0.1875 1.875 0 0 Z " fill="#D3F3E7" transform="translate(524,404)"/>
<path d="M0 0 C0.33 0.99 0.66 1.98 1 3 C0.67 3.66 0.34 4.32 0 5 C-0.0689472 6.37342831 -0.08467708 7.75002102 -0.0625 9.125 C-0.041875 10.40375 -0.02125 11.6825 0 13 C0.66 13.33 1.32 13.66 2 14 C1.67 14.99 1.34 15.98 1 17 C-1.29930415 15.20423739 -1.95128633 14.34780511 -2.36328125 11.40625 C-2.34652344 10.4471875 -2.32976563 9.488125 -2.3125 8.5 C-2.30669922 7.06140625 -2.30669922 7.06140625 -2.30078125 5.59375 C-2 3 -2 3 0 0 Z " fill="#248B5B" transform="translate(525,388)"/>
<path d="M0 0 C0.33 0 0.66 0 1 0 C1.08333357 4.8333472 0.95261487 9.23692563 0 14 C-2 12 -2 12 -2.01171875 9.6875 C-1.90472656 8.800625 -1.79773438 7.91375 -1.6875 7 C-1.58824219 6.113125 -1.48898437 5.22625 -1.38671875 4.3125 C-1 2 -1 2 0 0 Z " fill="#218D5A" transform="translate(451,274)"/>
<path d="M0 0 C1.1171875 1.734375 1.1171875 1.734375 2 4 C1.3203125 6.140625 1.3203125 6.140625 0.125 8.25 C-0.26429688 8.95640625 -0.65359375 9.6628125 -1.0546875 10.390625 C-1.36664063 10.92171875 -1.67859375 11.4528125 -2 12 C-2.66 11.67 -3.32 11.34 -4 11 C-3.52269162 9.5410574 -3.04308958 8.08286504 -2.5625 6.625 C-2.29566406 5.81289062 -2.02882813 5.00078125 -1.75390625 4.1640625 C-1 2 -1 2 0 0 Z " fill="#D4F1E3" transform="translate(262,203)"/>
<path d="M0 0 C1.98 0 3.96 0 6 0 C6 1.65 6 3.3 6 5 C4.35 4.67 2.7 4.34 1 4 C0.67 2.68 0.34 1.36 0 0 Z " fill="#DEF5EA" transform="translate(548,397)"/>
<path d="M0 0 C0.90105469 0.11085938 1.80210937 0.22171875 2.73046875 0.3359375 C3.76107422 0.47902344 3.76107422 0.47902344 4.8125 0.625 C5.1425 1.615 5.4725 2.605 5.8125 3.625 C1.1925 2.965 -3.4275 2.305 -8.1875 1.625 C-4.73535147 -0.67643236 -3.95270676 -0.51333854 0 0 Z " fill="#B8E5D3" transform="translate(158.1875,382.375)"/>
<path d="M0 0 C0.33 0 0.66 0 1 0 C0.67 2.64 0.34 5.28 0 8 C-0.66 8 -1.32 8 -2 8 C-2.33 9.32 -2.66 10.64 -3 12 C-3.66 12 -4.32 12 -5 12 C-3.68938409 7.76570244 -2.05643741 3.92592596 0 0 Z " fill="#2F9768" transform="translate(239,198)"/>
<path d="M0 0 C-0.99 0 -1.98 0 -3 0 C-3 0.66 -3 1.32 -3 2 C-4.75 3.6875 -4.75 3.6875 -7 5 C-9.25 4.6875 -9.25 4.6875 -11 4 C-4.45754717 -1.33726415 -4.45754717 -1.33726415 0 0 Z " fill="#2D9364" transform="translate(440,385)"/>
<path d="M0 0 C0.66 0 1.32 0 2 0 C0.68938409 4.23429756 -0.94356259 8.07407404 -3 12 C-3.66 11.01 -4.32 10.02 -5 9 C-4.34 9 -3.68 9 -3 9 C-2.87625 8.2575 -2.7525 7.515 -2.625 6.75 C-2.04513299 4.19858515 -1.26291261 2.2732427 0 0 Z " fill="#DBF7EA" transform="translate(219,235)"/>
<path d="M0 0 C0.66 0.33 1.32 0.66 2 1 C-1.49087093 5.0042343 -3.64951939 6.62671065 -9 7 C-7.75 5.5 -7.75 5.5 -6 4 C-4.68 4 -3.36 4 -2 4 C-2 3.01 -2 2.02 -2 1 C-1.34 0.67 -0.68 0.34 0 0 Z " fill="#1F8A5A" transform="translate(412,419)"/>
<path d="M0 0 C0.7425 0.61875 1.485 1.2375 2.25 1.875 C4.48801188 3.60437281 6.43739987 4.86106661 9 6 C8 7 8 7 5.625 7.3125 C3 7 3 7 1.1875 5.1875 C0 3 0 3 0 0 Z " fill="#C7F0DE" transform="translate(439,410)"/>
<path d="M0 0 C0.66 0.33 1.32 0.66 2 1 C1.67 1.66 1.34 2.32 1 3 C0.92934383 5.04055005 0.91578024 7.08334257 0.9375 9.125 C0.95103516 10.76855469 0.95103516 10.76855469 0.96484375 12.4453125 C0.97644531 13.28835938 0.98804688 14.13140625 1 15 C0.01 14.67 -0.98 14.34 -2 14 C-2.05389087 12.04196493 -2.09274217 10.08351091 -2.125 8.125 C-2.14820313 7.03445313 -2.17140625 5.94390625 -2.1953125 4.8203125 C-2 2 -2 2 0 0 Z " fill="#D5F6E7" transform="translate(247,406)"/>
<path d="M0 0 C2.90696099 1.06588569 3.84432962 1.70348499 5.3125 4.5 C6 7 6 7 5 9 C1.96130589 7.48065294 1.35589694 5.01995228 0 2 C0 1.34 0 0.68 0 0 Z " fill="#1E8F5B" transform="translate(359,386)"/>
<path d="M0 0 C0.66 0 1.32 0 2 0 C2.55941359 1.74440798 3.09691897 3.49585257 3.625 5.25 C3.92664063 6.22453125 4.22828125 7.1990625 4.5390625 8.203125 C5 11 5 11 3 15 C2.01 10.05 1.02 5.1 0 0 Z " fill="#218A5A" transform="translate(338,327)"/>
<path d="M0 0 C1 2 1 2 0.22265625 4.6015625 C-0.16019531 5.59929687 -0.54304687 6.59703125 -0.9375 7.625 C-1.50791016 9.12933594 -1.50791016 9.12933594 -2.08984375 10.6640625 C-2.39019531 11.43492187 -2.69054687 12.20578125 -3 13 C-3.33 13 -3.66 13 -4 13 C-3.91266424 11.39482903 -3.80447776 9.79078338 -3.6875 8.1875 C-3.62949219 7.29417969 -3.57148438 6.40085937 -3.51171875 5.48046875 C-2.93686419 2.69396 -2.1793144 1.75864246 0 0 Z " fill="#39996C" transform="translate(214,312)"/>
<path d="M0 0 C0.33 0 0.66 0 1 0 C1.10815225 1.76949095 1.18566083 3.54087487 1.25 5.3125 C1.29640625 6.29863281 1.3428125 7.28476562 1.390625 8.30078125 C1 11 1 11 -1.015625 12.85546875 C-1.67046875 13.23316406 -2.3253125 13.61085938 -3 14 C-3.66 13.67 -4.32 13.34 -5 13 C-4.360625 12.34 -3.72125 11.68 -3.0625 11 C-0.41087498 7.14309088 -0.31332879 4.62159967 0 0 Z " fill="#C2E8D5" transform="translate(560,410)"/>
<path d="M0 0 C0.33 0 0.66 0 1 0 C1 1.98 1 3.96 1 6 C0.34 6 -0.32 6 -1 6 C-1.33 7.65 -1.66 9.3 -2 11 C-2.99 10.67 -3.98 10.34 -5 10 C-3.35 6.7 -1.7 3.4 0 0 Z " fill="#CEF1E1" transform="translate(466,411)"/>
<path d="M0 0 C0.99 0.33 1.98 0.66 3 1 C2.01 2.485 2.01 2.485 1 4 C0.54084493 6.96842658 0.54084493 6.96842658 0.375 10.1875 C0.30023438 11.27417969 0.22546875 12.36085938 0.1484375 13.48046875 C0.09945313 14.31191406 0.05046875 15.14335937 0 16 C-0.33 16 -0.66 16 -1 16 C-1.02685095 13.52076199 -1.04676547 11.0418116 -1.0625 8.5625 C-1.07506836 7.50192383 -1.07506836 7.50192383 -1.08789062 6.41992188 C-1.09653588 4.61306441 -1.05220011 2.80612397 -1 1 C-0.67 0.67 -0.34 0.34 0 0 Z " fill="#3C9A6F" transform="translate(439,394)"/>
<path d="M0 0 C-1.15585285 3.91211733 -2.35534962 6.8745041 -5 10 C-4.88637738 8.5199159 -4.75877092 7.04089926 -4.625 5.5625 C-4.55539063 4.73878906 -4.48578125 3.91507813 -4.4140625 3.06640625 C-4.27742187 2.38449219 -4.14078125 1.70257813 -4 1 C-2 0 -2 0 0 0 Z " fill="#DBF6E9" transform="translate(213,251)"/>
<path d="M0 0 C-0.33 1.32 -0.66 2.64 -1 4 C-4.96 3.67 -8.92 3.34 -13 3 C-13 2.67 -13 2.34 -13 2 C-12.06027344 1.90912109 -12.06027344 1.90912109 -11.1015625 1.81640625 C-9.87566406 1.69072266 -9.87566406 1.69072266 -8.625 1.5625 C-7.81289063 1.48128906 -7.00078125 1.40007812 -6.1640625 1.31640625 C-3.85304959 0.97851447 -2.33455672 0 0 0 Z " fill="#C9F0DF" transform="translate(508,425)"/>
<path d="M0 0 C1.9453125 -0.29296875 1.9453125 -0.29296875 4.125 -0.1875 C5.40375 -0.125625 6.6825 -0.06375 8 0 C7.67 0.66 7.34 1.32 7 2 C6.278125 1.896875 5.55625 1.79375 4.8125 1.6875 C0.87958411 2.12449065 -0.46321923 4.10082197 -3 7 C-2.38722388 4.03824877 -1.74627478 2.61941217 0 0 Z " fill="#188953" transform="translate(490,393)"/>
<path d="M0 0 C0.33 0 0.66 0 1 0 C0.25 6.625 0.25 6.625 -2 10 C-2.66 10 -3.32 10 -4 10 C-2.8905928 6.51329166 -1.73662334 3.22515763 0 0 Z " fill="#D4F4E5" transform="translate(253,223)"/>
<path d="M0 0 C-1.0975223 2.99324263 -1.67682892 3.84610901 -4.625 5.25 C-5.40875 5.4975 -6.1925 5.745 -7 6 C-4.84615385 0 -4.84615385 0 0 0 Z " fill="#1F8F5A" transform="translate(462,419)"/>
<path d="M0 0 C0.66 0 1.32 0 2 0 C2.12375 0.639375 2.2475 1.27875 2.375 1.9375 C2.684375 2.9584375 2.684375 2.9584375 3 4 C3.66 4.33 4.32 4.66 5 5 C4.34 5.66 3.68 6.32 3 7 C0.27130593 6.96712417 -2.2966618 6.43602229 -5 6 C-5 5.67 -5 5.34 -5 5 C-3.02 5 -1.04 5 1 5 C0.67 3.35 0.34 1.7 0 0 Z " fill="#3FA475" transform="translate(544,412)"/>
<path d="M0 0 C1.98 0 3.96 0 6 0 C5 3 5 3 1.9375 4.6875 C0.968125 5.120625 -0.00125 5.55375 -1 6 C-1 5.01 -1 4.02 -1 3 C-0.01 3 0.98 3 2 3 C2 2.34 2 1.68 2 1 C1.34 0.67 0.68 0.34 0 0 Z " fill="#E5FAF1" transform="translate(252,398)"/>
<path d="M0 0 C1.65 0 3.3 0 5 0 C5.66 1.32 6.32 2.64 7 4 C6.34 4 5.68 4 5 4 C5 3.34 5 2.68 5 2 C2.13275314 2.57344937 1.1385485 2.8614515 -1 5 C-0.67 3.35 -0.34 1.7 0 0 Z " fill="#D6F6E9" transform="translate(145,395)"/>
<path d="M0 0 C0.66 0 1.32 0 2 0 C0.84414715 3.91211733 -0.35534962 6.8745041 -3 10 C-2.25 3.375 -2.25 3.375 0 0 Z " fill="#DCF8EB" transform="translate(189,295)"/>
<path d="M0 0 C2 3 2 3 2 6 C2.99 6.33 3.98 6.66 5 7 C4.34 8.32 3.68 9.64 3 11 C2.30034557 9.73581754 1.61565237 8.46334598 0.9375 7.1875 C0.55464844 6.47980469 0.17179687 5.77210938 -0.22265625 5.04296875 C-1 3 -1 3 0 0 Z " fill="#E4FBEF" transform="translate(355,282)"/>
<path d="M0 0 C0.95465783 2.16967689 1.14401212 3.56328793 0.3984375 5.82421875 C-0.35870385 7.5684743 -1.17609198 9.28627131 -2 11 C-2.66 11 -3.32 11 -4 11 C-3.52269162 9.5410574 -3.04308958 8.08286504 -2.5625 6.625 C-2.29566406 5.81289062 -2.02882813 5.00078125 -1.75390625 4.1640625 C-1 2 -1 2 0 0 Z " fill="#C1EAD8" transform="translate(267,192)"/>
<path d="M0 0 C0.66 0 1.32 0 2 0 C1.71758359 1.46015291 1.42373386 2.91809793 1.125 4.375 C0.96257812 5.18710937 0.80015625 5.99921875 0.6328125 6.8359375 C0 9 0 9 -2 11 C-1.85957123 9.35369672 -1.71250671 7.70795821 -1.5625 6.0625 C-1.48128906 5.14597656 -1.40007812 4.22945313 -1.31640625 3.28515625 C-1 1 -1 1 0 0 Z " fill="#C2EBD9" transform="translate(72,406)"/>
<path d="M0 0 C4.62 0 9.24 0 14 0 C14 0.33 14 0.66 14 1 C13.24074219 1.06058594 12.48148437 1.12117188 11.69921875 1.18359375 C10.70535156 1.26738281 9.71148437 1.35117187 8.6875 1.4375 C7.70136719 1.51871094 6.71523438 1.59992188 5.69921875 1.68359375 C2.90624401 1.91812559 2.90624401 1.91812559 0 3 C0 2.01 0 1.02 0 0 Z " fill="#B0E0CC" transform="translate(490,383)"/>
<path d="M0 0 C0.66 0.33 1.32 0.66 2 1 C0.75 3 0.75 3 -1 5 C-2.32 5 -3.64 5 -5 5 C-5 3.68 -5 2.36 -5 1 C-4.34 1 -3.68 1 -3 1 C-3 1.66 -3 2.32 -3 3 C-2.34 3 -1.68 3 -1 3 C-0.67 2.01 -0.34 1.02 0 0 Z " fill="#168B53" transform="translate(439,313)"/>
<path d="M0 0 C4 2 4 2 5.25 4.625 C5.4975 5.40875 5.745 6.1925 6 7 C5.34 7.66 4.68 8.32 4 9 C2.68 6.03 1.36 3.06 0 0 Z " fill="#E2FAEF" transform="translate(360,297)"/>
<path d="M0 0 C0.33 0 0.66 0 1 0 C1 2.31 1 4.62 1 7 C-0.32 7.33 -1.64 7.66 -3 8 C-1.125 2.25 -1.125 2.25 0 0 Z " fill="#238F5D" transform="translate(194,289)"/>
<path d="M0 0 C0.66 0 1.32 0 2 0 C0.84414715 3.91211733 -0.35534962 6.8745041 -3 10 C-3 8.35 -3 6.7 -3 5 C-2.34 5 -1.68 5 -1 5 C-0.67 3.35 -0.34 1.7 0 0 Z " fill="#D6F5E7" transform="translate(200,273)"/>
<path d="M0 0 C0.66 0 1.32 0 2 0 C0.84414715 3.91211733 -0.35534962 6.8745041 -3 10 C-3 8.35 -3 6.7 -3 5 C-2.34 5 -1.68 5 -1 5 C-0.67 3.35 -0.34 1.7 0 0 Z " fill="#D9F7EA" transform="translate(226,221)"/>
<path d="M0 0 C0.66 0.66 1.32 1.32 2 2 C1.01 3.485 1.01 3.485 0 5 C-0.45394552 7.27912938 -0.45394552 7.27912938 -0.625 9.6875 C-0.69976563 10.49574219 -0.77453125 11.30398438 -0.8515625 12.13671875 C-0.90054688 12.75160156 -0.94953125 13.36648438 -1 14 C-1.33 14 -1.66 14 -2 14 C-2.05437607 12.41705218 -2.09296271 10.83355744 -2.125 9.25 C-2.14820313 8.36828125 -2.17140625 7.4865625 -2.1953125 6.578125 C-1.99139502 3.8864142 -1.36551721 2.30095026 0 0 Z " fill="#B9E4D0" transform="translate(524,386)"/>
<path d="M0 0 C0.66 0.66 1.32 1.32 2 2 C0.02 4.97 0.02 4.97 -2 8 C-2.66 7.67 -3.32 7.34 -4 7 C-4 6.01 -4 5.02 -4 4 C-3.34 4 -2.68 4 -2 4 C-1.34 2.68 -0.68 1.36 0 0 Z " fill="#E6FAF1" transform="translate(331,385)"/>
<path d="M0 0 C2.18975773 3.28463659 2.99806563 6.20696275 4 10 C2 8.9375 2 8.9375 0 7 C-0.25 3.3125 -0.25 3.3125 0 0 Z " fill="#C4ECD8" transform="translate(328,302)"/>
<path d="M0 0 C2.15377564 2.62198774 3.40072174 4.64404172 4 8 C2.68 8 1.36 8 0 8 C0 5.36 0 2.72 0 0 Z " fill="#2B9665" transform="translate(324,223)"/>
<path d="M0 0 C3 1 3 1 5 4 C4.625 6.1875 4.625 6.1875 4 8 C1.84622436 5.37801226 0.59927826 3.35595828 0 0 Z " fill="#238E5B" transform="translate(290,215)"/>
<path d="M0 0 C0.66 0.33 1.32 0.66 2 1 C0.68 3.64 -0.64 6.28 -2 9 C-2.33 9 -2.66 9 -3 9 C-3.26218749 5.85375007 -3.24754367 4.38162983 -1.5 1.6875 C-1.005 1.130625 -0.51 0.57375 0 0 Z " fill="#DEF9EE" transform="translate(237,199)"/>
<path d="M0 0 C2.31 0.33 4.62 0.66 7 1 C7 1.66 7 2.32 7 3 C5.02 3 3.04 3 1 3 C0.67 2.01 0.34 1.02 0 0 Z " fill="#F1FBF7" transform="translate(539,395)"/>
<path d="M0 0 C0.99 0.33 1.98 0.66 3 1 C0.03 3.475 0.03 3.475 -3 6 C-2.625 3.5625 -2.625 3.5625 -2 1 C-1.34 0.67 -0.68 0.34 0 0 Z " fill="#D7F5E8" transform="translate(429,386)"/>
<path d="M0 0 C0.33 0.99 0.66 1.98 1 3 C-0.65 3.66 -2.3 4.32 -4 5 C-4.33 4.01 -4.66 3.02 -5 2 C-2 0 -2 0 0 0 Z " fill="#249864" transform="translate(337,385)"/>
<path d="M0 0 C0.95904856 3.83619425 0.91892116 5.32431536 0 9 C-0.99 9 -1.98 9 -3 9 C-2.01 6.03 -1.02 3.06 0 0 Z " fill="#2C9466" transform="translate(176,326)"/>
<path d="M0 0 C0.66 0 1.32 0 2 0 C2.66 1.98 3.32 3.96 4 6 C3.01 6.33 2.02 6.66 1 7 C0.67 4.69 0.34 2.38 0 0 Z " fill="#2D9364" transform="translate(361,302)"/>
<path d="M0 0 C0.66 0 1.32 0 2 0 C2.25 2.25 2.25 2.25 2 5 C0 7.3125 0 7.3125 -2 9 C-1.34 6.03 -0.68 3.06 0 0 Z " fill="#C0E9D6" transform="translate(449,292)"/>
<path d="M0 0 C1.23076923 4.92307692 1.23076923 4.92307692 0 8 C-0.99 8.66 -1.98 9.32 -3 10 C-2.01 6.7 -1.02 3.4 0 0 Z " fill="#C4ECDA" transform="translate(225,285)"/>
<path d="M0 0 C0.66 0.99 1.32 1.98 2 3 C1.67 3.99 1.34 4.98 1 6 C0.34 6 -0.32 6 -1 6 C-1 6.66 -1 7.32 -1 8 C-1.66 8 -2.32 8 -3 8 C-1.125 2.25 -1.125 2.25 0 0 Z " fill="#228F5E" transform="translate(198,281)"/>
</svg>
